# xmcd
#
# Track frame offsets: 
#        182
#        16740
#        44040
#        70987
#
# Disc length: 1171 seconds
#
# Revision: 0
# Processed by: cddbd v1.5.2PL0 Copyright (c) Steve Scherf et al.
# Submitted via: ExactAudioCopy v1.4
#
DISCID=30049104
DTITLE=Olimpia - Take Me Away (Pa Ra Ra Rumpa...)
DYEAR=1900
DGENRE=
TTITLE0=Take Me Away (7" Edit)
TTITLE1=Take Me Away (Extended Club Mix)
TTITLE2=Take Me Away (Night Club Mix)
TTITLE3=Take Me Away (Single Club Mix)
EXTD=
EXTT0=
EXTT1=
EXTT2=
EXTT3=
PLAYORDER=
